# Blender v2.65 (sub 0) OBJ File: 'icosphere.blend'
# www.blender.org
mtllib icosphere.mtl
o Icosphere
v -0.003934 -0.985282 -0.009229
v 0.719674 -0.432502 0.516496
v -0.280322 -0.432502 0.841420
v -0.898360 -0.432498 -0.009229
v -0.280322 -0.432502 -0.859879
v 0.719674 -0.432502 -0.534955
v 0.272454 0.461938 0.841420
v -0.727541 0.461937 0.516496
v -0.727541 0.461937 -0.534955
v 0.272454 0.461938 -0.859879
v 0.890492 0.461933 -0.009229
v -0.003934 1.014718 -0.009229
v 0.421389 -0.835936 0.299782
v 0.258935 -0.511020 0.799782
v -0.166389 -0.835937 0.490766
v 0.421389 -0.835936 -0.318241
v 0.846714 -0.511018 -0.009229
v -0.692123 -0.511018 0.490768
v -0.529664 -0.835934 -0.009229
v -0.692123 -0.511018 -0.509226
v -0.166389 -0.835937 -0.509225
v 0.258935 -0.511020 -0.818241
v 0.947124 0.014718 -0.318242
v 0.947124 0.014718 0.299783
v 0.583852 0.014718 0.799787
v -0.003934 0.014718 0.990771
v -0.591719 0.014718 0.799787
v -0.954992 0.014718 0.299783
v -0.954992 0.014718 -0.318242
v -0.591719 0.014718 -0.818246
v -0.003934 0.014718 -1.009229
v 0.583852 0.014718 -0.818246
v 0.684256 0.540454 0.490768
v -0.266803 0.540455 0.799782
v -0.854582 0.540454 -0.009229
v -0.266803 0.540455 -0.818241
v 0.684256 0.540454 -0.509226
v 0.521796 0.865369 -0.009229
v 0.158522 0.865372 0.490766
v -0.429256 0.865372 0.299782
v -0.429256 0.865372 -0.318241
v 0.158522 0.865372 -0.509225
vt 0 0
vt 0 1
vt 1 1
vt 1 1
vn 0.102381 -0.943523 0.315090
vn 0.700224 -0.661699 0.268032
vn -0.268034 -0.943523 0.194736
vn -0.268034 -0.943523 -0.194737
vn 0.102381 -0.943523 -0.315090
vn 0.904989 -0.330385 0.268032
vn 0.024747 -0.330386 0.943521
vn -0.889697 -0.330385 0.315095
vn -0.574602 -0.330388 -0.748784
vn 0.534576 -0.330387 -0.777865
vn 0.802609 -0.125627 0.583126
vn -0.306569 -0.125629 0.943522
vn -0.992077 -0.125628 0.000000
vn -0.306569 -0.125629 -0.943522
vn 0.802609 -0.125627 -0.583126
vn 0.408946 0.661698 0.628425
vn -0.471300 0.661699 0.583122
vn -0.700224 0.661699 -0.268032
vn 0.038530 0.661699 -0.748779
vn 0.724042 0.661695 -0.194736
vn -0.038530 -0.661699 0.748779
vn 0.187594 -0.794658 0.577345
vn 0.471300 -0.661699 0.583122
vn 0.700224 -0.661699 -0.268032
vn 0.607060 -0.794656 0.000000
vn 0.331305 -0.943524 0.000000
vn -0.724042 -0.661695 0.194736
vn -0.491119 -0.794657 0.356821
vn -0.408946 -0.661698 0.628425
vn -0.408946 -0.661698 -0.628425
vn -0.491119 -0.794657 -0.356821
vn -0.724042 -0.661695 -0.194736
vn 0.471300 -0.661699 -0.583122
vn 0.187594 -0.794658 -0.577345
vn -0.038530 -0.661699 -0.748779
vn 0.992077 0.125628 -0.000000
vn 0.982246 -0.187599 0.000000
vn 0.904989 -0.330385 -0.268031
vn 0.306569 0.125629 0.943522
vn 0.303531 -0.187597 0.934171
vn 0.534576 -0.330387 0.777865
vn -0.802609 0.125627 0.583126
vn -0.794656 -0.187595 0.577348
vn -0.574602 -0.330388 0.748784
vn -0.802609 0.125627 -0.583126
vn -0.794656 -0.187595 -0.577348
vn -0.889697 -0.330385 -0.315095
vn 0.306569 0.125629 -0.943522
vn 0.303531 -0.187597 -0.934171
vn 0.024747 -0.330386 -0.943521
vn 0.574602 0.330388 0.748784
vn 0.794656 0.187595 0.577348
vn 0.889697 0.330385 0.315095
vn -0.534576 0.330387 0.777865
vn -0.303531 0.187597 0.934171
vn -0.024747 0.330386 0.943521
vn -0.904989 0.330385 -0.268032
vn -0.982246 0.187599 0.000000
vn -0.904989 0.330385 0.268031
vn -0.024747 0.330386 -0.943521
vn -0.303531 0.187597 -0.934171
vn -0.534576 0.330387 -0.777865
vn 0.889697 0.330385 -0.315095
vn 0.794656 0.187595 -0.577348
vn 0.574602 0.330388 -0.748783
vn 0.268034 0.943523 0.194737
vn 0.491119 0.794658 0.356821
vn 0.724042 0.661695 0.194736
vn -0.102381 0.943523 0.315090
vn -0.187594 0.794658 0.577345
vn 0.038530 0.661699 0.748779
vn -0.331305 0.943524 0.000000
vn -0.607060 0.794656 0.000000
vn -0.700224 0.661699 0.268032
vn -0.102381 0.943523 -0.315090
vn -0.187594 0.794658 -0.577345
vn -0.471300 0.661699 -0.583122
vn 0.268034 0.943523 -0.194737
vn 0.491119 0.794658 -0.356821
vn 0.408946 0.661699 -0.628425
usemtl None
s off
f 1/1/1 13/1/1 15/1/1
f 2/1/2 13/1/2 17/1/2
f 1/1/3 15/1/3 19/1/3
f 1/1/4 19/1/4 21/1/4
f 1/1/5 21/1/5 16/1/5
f 2/1/6 17/1/6 24/1/6
f 3/1/7 14/1/7 26/1/7
f 4/1/8 18/1/8 28/1/8
f 5/1/9 20/1/9 30/1/9
f 6/1/10 22/1/10 32/1/10
f 2/1/11 24/1/11 25/1/11
f 3/1/12 26/1/12 27/1/12
f 4/1/13 28/1/13 29/1/13
f 5/1/14 30/1/14 31/1/14
f 6/1/15 32/1/15 23/1/15
f 7/1/16 33/1/16 39/1/16
f 8/1/17 34/1/17 40/1/17
f 9/1/18 35/1/18 41/1/18
f 10/1/19 36/1/19 42/1/19
f 11/1/20 37/1/20 38/1/20
f 15/1/21 14/1/21 3/1/21
f 15/1/22 13/1/22 14/1/22
f 13/1/23 2/1/23 14/1/23
f 17/1/24 16/1/24 6/1/24
f 17/1/25 13/1/25 16/1/25
f 13/1/26 1/1/26 16/1/26
f 19/1/27 18/1/27 4/1/27
f 19/1/28 15/1/28 18/1/28
f 15/1/29 3/1/29 18/1/29
f 21/1/30 20/1/30 5/1/30
f 21/1/31 19/1/31 20/1/31
f 19/1/32 4/1/32 20/1/32
f 16/1/33 22/1/33 6/1/33
f 16/1/34 21/1/34 22/1/34
f 21/1/35 5/1/35 22/1/35
f 24/1/36 23/1/36 11/1/36
f 24/1/37 17/1/37 23/1/37
f 17/1/38 6/1/38 23/1/38
f 26/1/39 25/1/39 7/1/39
f 26/1/40 14/1/40 25/1/40
f 14/1/41 2/1/41 25/1/41
f 28/1/42 27/1/42 8/1/42
f 28/1/43 18/1/43 27/1/43
f 18/1/44 3/1/44 27/1/44
f 30/1/45 29/1/45 9/1/45
f 30/1/46 20/1/46 29/1/46
f 20/1/47 4/1/47 29/1/47
f 32/1/48 31/1/48 10/1/48
f 32/1/49 22/1/49 31/1/49
f 22/1/50 5/1/50 31/1/50
f 25/1/51 33/1/51 7/1/51
f 25/1/52 24/1/52 33/1/52
f 24/1/53 11/1/53 33/1/53
f 27/1/54 34/1/54 8/1/54
f 27/1/55 26/1/55 34/1/55
f 26/1/56 7/1/56 34/1/56
f 29/1/57 35/1/57 9/1/57
f 29/1/58 28/1/58 35/1/58
f 28/1/59 8/1/59 35/1/59
f 31/1/60 36/1/60 10/1/60
f 31/1/61 30/1/61 36/1/61
f 30/1/62 9/1/62 36/1/62
f 23/1/63 37/1/63 11/1/63
f 23/1/64 32/1/64 37/1/64
f 32/1/65 10/1/65 37/1/65
f 39/1/66 38/1/66 12/1/66
f 39/1/67 33/1/67 38/1/67
f 33/1/68 11/1/68 38/1/68
f 40/1/69 39/1/69 12/1/69
f 40/1/70 34/1/70 39/1/70
f 34/1/71 7/1/71 39/1/71
f 41/1/72 40/1/72 12/1/72
f 41/1/73 35/1/73 40/1/73
f 35/1/74 8/1/74 40/1/74
f 42/1/75 41/1/75 12/1/75
f 42/1/76 36/1/76 41/1/76
f 36/1/77 9/1/77 41/1/77
f 38/1/78 42/1/78 12/1/78
f 38/1/79 37/1/79 42/1/79
f 37/1/80 10/1/80 42/1/80